M48
;GenerationSoftware,Autodesk,EAGLE,9.5.1*%
;CreationDate,2019-10-13T14:47:08Z*%
FMAT,2
ICI,OFF
METRIC,TZ,000.000
T4C0.508
T3C0.813
T2C0.900
T1C1.016
%
G90
M71
T1
X5080Y34290
X76200Y4572
X73660Y4826
X63500Y4826
X68580Y4826
X66040Y4572
X5080Y71120
X5080Y68580
X5080Y66040
X5080Y63500
X5080Y60960
X5080Y58420
X5080Y55880
X5080Y53340
X5080Y50800
X5080Y48260
X5080Y41910
X5080Y39370
X5080Y36830
X71120Y4572
X5080Y31750
X5080Y29210
X5080Y26670
X5080Y24130
X5080Y21590
X5080Y19050
X76200Y72390
X73660Y72390
X71120Y72390
X68580Y72390
X66040Y72390
X63500Y72390
X60960Y72390
X58420Y72390
X55880Y72390
X53340Y72390
T2
X20320Y26670
X12700Y26670
X20320Y24130
X12700Y24130
X12700Y21590
X20320Y21590
X20320Y41910
X12700Y41910
X20320Y71120
X12700Y71120
X20320Y68580
X12700Y68580
X20320Y66040
X12700Y66040
X20320Y63500
X12700Y63500
X20320Y60960
X12700Y60960
X12700Y50800
X20320Y50800
X20320Y58420
X12700Y58420
X20320Y55880
X12700Y55880
X12700Y53340
X20320Y53340
X76200Y55880
X76200Y63500
X20320Y39370
X12700Y39370
X73660Y55880
X73660Y63500
X71120Y55880
X71120Y63500
X68580Y55880
X68580Y63500
X66040Y55880
X66040Y63500
X63500Y55880
X63500Y63500
X58420Y63500
X58420Y55880
X60960Y63500
X60960Y55880
X20320Y36830
X12700Y36830
X20320Y34290
X12700Y34290
X20320Y31750
X12700Y31750
X20320Y29210
X12700Y29210
T3
X35560Y34290
X66040Y16510
X68580Y16510
X71120Y16510
X73660Y16510
X76200Y16510
X35560Y39370
X35560Y36830
X43180Y26670
X35560Y31750
X35560Y29210
X35560Y26670
X35560Y24130
X35560Y21590
X43180Y21590
X43180Y24130
X78740Y16510
X43180Y29210
X43180Y31750
X43180Y34290
X43180Y36830
X43180Y39370
X34290Y71120
X34290Y68580
X34290Y66040
X34290Y63500
X34290Y60960
X34290Y58420
X34290Y55880
X34290Y53340
X41910Y53340
X41910Y55880
X41910Y58420
X41910Y60960
X41910Y63500
X41910Y66040
X41910Y68580
X41910Y71120
X78740Y44450
X76200Y44450
X73660Y44450
X71120Y44450
X68580Y44450
X66040Y44450
X63500Y44450
X60960Y44450
X60960Y36830
X63500Y36830
X66040Y36830
X68580Y36830
X71120Y36830
X73660Y36830
X76200Y36830
X78740Y36830
X78740Y24130
X76200Y24130
X73660Y24130
X71120Y24130
X68580Y24130
X66040Y24130
X63500Y24130
X60960Y24130
X60960Y16510
X63500Y16510
T4
X50292Y26670
X55372Y31750
X55880Y48514
X54864Y46990
X82804Y25908
X52324Y29210
M30